<?xml version="1.0" encoding="UTF-8" standalone="no"?>
<svg
   version="1.1"
   width="762"
   height="762"
   id="svg14"
   sodipodi:docname="brineomatic-good.svg"
   inkscape:version="1.4 (e7c3feb1, 2024-10-09)"
   xmlns:inkscape="http://www.inkscape.org/namespaces/inkscape"
   xmlns:sodipodi="http://sodipodi.sourceforge.net/DTD/sodipodi-0.dtd"
   xmlns="http://www.w3.org/2000/svg"
   xmlns:svg="http://www.w3.org/2000/svg">
  <defs
     id="defs14" />
  <sodipodi:namedview
     id="namedview14"
     pagecolor="#ffffff"
     bordercolor="#000000"
     borderopacity="0.25"
     inkscape:showpageshadow="2"
     inkscape:pageopacity="0.0"
     inkscape:pagecheckerboard="0"
     inkscape:deskcolor="#d1d1d1"
     inkscape:zoom="0.59930539"
     inkscape:cx="342.89697"
     inkscape:cy="342.06267"
     inkscape:window-width="1512"
     inkscape:window-height="945"
     inkscape:window-x="0"
     inkscape:window-y="37"
     inkscape:window-maximized="0"
     inkscape:current-layer="svg14" />
  <path
     d="M -9.090365,4.04428 771.83063,0 770.99287,762.04431 -10,762.26227 Z"
     fill="#1c4569"
     id="path1"
     sodipodi:nodetypes="ccccc" />
  <path
     d="m -130.61954,-130.9314 c 337.92,0 675.84,0 1024,0 0,337.92 0,675.84 0,1024 -337.92,0 -675.84,0 -1024,0 0,-337.92 0,-675.84 0,-1024 z m 105.000002,117.000003 c -4.82845,6.2707198 -6.121214,11.7147598 -6.131102,19.6301698 -0.0038,1.10554 -0.0076,2.21108 -0.01147,3.35012 9.12e-4,1.2065302 0.0018,2.4130602 0.0028,3.6561502 -0.003,1.29324 -0.0059,2.58649 -0.0089,3.91892 -0.0081,3.59913 -0.0099,7.19824 -0.01072,10.79738 -0.002,3.91212 -0.0096,7.82423 -0.01657,11.73635 -0.01282,7.76346 -0.0202,15.52691 -0.0259,23.29037 -0.0071,9.29735 -0.01982,18.59468 -0.03255,27.89202 -0.03185,23.538977 -0.05169,47.077957 -0.06929,70.616937 -0.0048,6.37473 -0.0098,12.74945 -0.01481,19.12417 -0.03104,39.56605 -0.05766,79.13209 -0.07442,118.69814 -0.0039,9.16625 -0.0079,18.3325 -0.01202,27.49874 -5.02e-4,1.1388 -10e-4,2.27759 -0.0015,3.45089 -0.01642,36.93144 -0.05489,73.86281 -0.105767,110.79422 -0.05221,37.96379 -0.085,75.92755 -0.09227,113.89137 -10e-4,5.3607 -0.0023,10.7214 -0.0036,16.0821 -2.58e-4,1.05504 -5.16e-4,2.11008 -7.82e-4,3.19709 -0.0047,16.98539 -0.02964,33.97069 -0.06197,50.95605 -0.03202,17.06922 -0.04201,34.13835 -0.02957,51.20759 0.0067,10.14231 -0.0032,20.28428 -0.03713,30.42654 -0.021,6.77566 -0.02018,13.5511 -0.0017,20.32678 0.0099,3.8602 0.01043,7.71975 -0.01566,11.57989 -0.02791,4.16266 -0.0092,8.32384 0.0139,12.48652 -0.01548,1.19249 -0.03095,2.38497 -0.0469,3.61358 0.11059,9.01912 2.458958,17.00205 8.636648,23.8174 1.66061,1.53157 3.23147,2.76847 5.15133,3.96051 0.76084,0.51145 1.52169,1.0229 2.30559,1.54986 5.5332,2.17191 10.8176,1.86522 16.71125,1.83604 1.34785,0.004 2.6957,0.009 4.04353,0.0159 3.71451,0.0142 7.42879,0.01 11.14331,0.002 4.03711,-0.005 8.07417,0.008 12.11127,0.0177 7.07919,0.0155 14.15832,0.0197 21.23752,0.0166 10.52708,-0.005 21.05409,0.008 31.58116,0.0236 19.894091,0.029 39.788151,0.0375 59.682251,0.0392 15.36115,0.001 30.72228,0.008 46.08342,0.0171 4.41883,0.003 8.83766,0.005 13.2565,0.008 1.09848,6.6e-4 2.19696,10e-4 3.32872,0.002 30.90582,0.0185 61.81164,0.0303 92.71747,0.029 1.74847,-7e-5 1.74847,-7e-5 3.53226,-1.4e-4 5.90822,-2.5e-4 11.81643,-5.5e-4 17.72465,-8.6e-4 1.17343,-6e-5 2.34686,-1.2e-4 3.55585,-1.8e-4 2.37296,-1.2e-4 4.74593,-2.5e-4 7.11889,-3.8e-4 36.92391,-0.002 73.84774,0.0207 110.77163,0.0617 41.46664,0.0461 82.93323,0.0719 124.3999,0.0691 4.42009,-2.2e-4 8.84018,-3.7e-4 13.26027,-4.6e-4 1.08837,-4e-5 2.17674,-7e-5 3.29809,-1.1e-4 17.5288,-9e-5 35.05752,0.0191 52.5863,0.0449 17.61138,0.0254 35.22265,0.0284 52.83403,0.009 10.4671,-0.0111 20.93387,-0.006 31.40094,0.0238 6.98962,0.018 13.97902,0.0142 20.96863,-0.007 3.98402,-0.0117 7.96743,-0.0139 11.95141,0.0104 3.62685,0.0219 7.25256,0.016 10.87936,-0.0118 1.91395,-0.008 3.82795,0.0142 5.74177,0.0373 8.95298,-0.11091 15.11271,-2.42342 21.68411,-8.58188 7.2811,-7.55533 7.52632,-16.17831 7.47303,-26.14492 0.005,-1.30122 0.01,-2.60244 0.015,-3.94309 0.0133,-3.61222 0.008,-7.2242 -3.3e-4,-10.83643 -0.006,-3.9297 0.006,-7.85935 0.0151,-11.78904 0.0139,-6.88751 0.0166,-13.77495 0.012,-20.66247 -0.007,-10.24201 0.003,-20.48396 0.017,-30.72596 0.0249,-19.35553 0.0294,-38.71103 0.0275,-58.06657 -10e-4,-14.9449 0.002,-29.8898 0.01,-44.8347 10e-4,-2.14619 0.002,-4.29239 0.003,-6.43858 7.8e-4,-1.59801 7.8e-4,-1.59801 0.002,-3.2283 5.2e-4,-1.06728 10e-4,-2.13455 0.002,-3.23417 5.2e-4,-1.06905 10e-4,-2.13809 0.002,-3.23953 0.0146,-30.07276 0.0229,-60.14551 0.0182,-90.21826 -1.8e-4,-1.13398 -3.5e-4,-2.26795 -5.3e-4,-3.43629 -8.8e-4,-5.74759 -0.002,-11.49517 -0.003,-17.24276 -2e-4,-1.14151 -3.9e-4,-2.28303 -5.8e-4,-3.45913 -3.9e-4,-2.30842 -7.8e-4,-4.61684 -10e-4,-6.92526 -0.006,-35.92396 0.009,-71.84785 0.0416,-107.77179 0.0361,-40.34964 0.0554,-80.69924 0.0505,-121.0489 -4.7e-4,-4.30098 -8.8e-4,-8.60196 -10e-4,-12.90294 -10e-5,-1.05903 -2e-4,-2.11806 -3.1e-4,-3.20918 -10e-4,-15.99789 0.0108,-31.99575 0.0295,-47.99363 0.0212,-18.19049 0.0251,-36.38088 0.006,-54.571367 -0.0103,-10.18268 -0.007,-20.36514 0.0165,-30.5478 0.0142,-6.79998 0.0103,-13.59979 -0.008,-20.39975 -0.0102,-3.87562 -0.0124,-7.75079 0.007,-11.62638 0.0211,-4.17571 0.004,-8.35038 -0.0178,-12.52609 0.0123,-1.2019801 0.0246,-2.4039601 0.0372,-3.6423601 -0.0945,-8.81175 -2.1464,-15.37791 -7.87176,-22.1653899 -0.71414,-0.59942 -1.42828,-1.19883 -2.16406,-1.81641 -0.70898,-0.61746 -1.41797,-1.23492 -2.14844,-1.87109 -7.41701,-5.06557 -13.71989,-5.11982 -22.52275,-5.07173 -1.33878,-0.003 -2.67755,-0.008 -4.01633,-0.0141 -3.68467,-0.0125 -7.36911,-0.006 -11.05379,0.003 -4.0065,0.007 -8.01296,-0.004 -12.01945,-0.0124 -7.02391,-0.0124 -14.04775,-0.0136 -21.07167,-0.007 -10.44485,0.009 -20.88963,0.001 -31.33447,-0.0103 -18.6538,-0.0197 -37.30756,-0.022 -55.96136,-0.0168 -16.32595,0.005 -32.65188,0.004 -48.97782,-0.002 -2.18839,-7.5e-4 -4.37677,-0.002 -6.56515,-0.002 -3.29754,-0.001 -6.59508,-0.002 -9.89262,-0.003 -30.66613,-0.0107 -61.33224,-0.0154 -91.99836,-0.008 -1.15649,2.9e-4 -2.31297,5.9e-4 -3.5045,9e-4 -9.39195,0.002 -18.7839,0.005 -28.17586,0.008 -36.63539,0.0101 -73.27073,0.002 -109.90611,-0.0215 -41.14546,-0.0261 -82.29089,-0.0389 -123.43636,-0.0318 -4.38581,7.1e-4 -8.77162,0.001 -13.15743,0.002 -1.61988,2.5e-4 -1.61988,2.5e-4 -3.27249,5.1e-4 -16.31451,0.002 -32.62899,-0.006 -48.94348,-0.0188 -18.551,-0.0149 -37.10193,-0.0158 -55.652921,0.002 -10.38482,0.01 -20.76951,0.008 -31.15433,-0.009 -6.93475,-0.0105 -13.8694,-0.006 -20.80415,0.009 -3.95256,0.009 -7.90486,0.011 -11.85741,-0.004 -3.59819,-0.0138 -7.19587,-0.009 -10.79403,0.0103 -1.89873,0.005 -3.79748,-0.009 -5.69615,-0.0235 -10.508197,0.08836 -19.495447,2.52501 -26.709487,10.52837 z"
     fill="#FEFEFE"
     id="path2"
     style="fill:none" />
  <path
     d="m 3.775552,-0.05789712 3.345503,-0.008363 3.682125,0.006228 3.922496,-0.005312 c 3.611719,-0.004744 7.223413,-0.003224 10.835134,-7.2222e-4 3.922201,0.001629 7.844397,-0.002504 11.766596,-0.005909 6.880441,-0.005163 13.760874,-0.00657 20.641316,-0.005544 10.231353,0.001522 20.462699,-0.00263 30.69405,-0.007875 19.334018,-0.009684 38.668038,-0.01248463 58.002058,-0.01305706 14.92691,-4.5907e-4 29.85383,-0.0025149 44.78074,-0.0057006 4.29248,-8.975e-4 8.58495,-0.001787 12.87743,-0.002675 l 3.23345,-6.6985e-4 c 30.02417,-0.006156 60.04833,-0.0101003 90.0725,-0.009657 l 3.43204,4.721e-5 c 5.74071,8.311e-5 11.48142,1.8215e-4 17.22213,2.8471e-4 l 3.4551,6.044e-5 c 2.30572,4.043e-5 4.61145,8.223e-5 6.91718,1.2539e-4 35.88296,6.1292e-4 71.76592,-0.006896 107.64889,-0.0205726 40.28803,-0.0153491 80.57607,-0.0239669 120.86411,-0.0230368 4.2931,7.463e-5 8.58621,1.2334e-4 12.87931,1.5431e-4 l 3.2034,3.532e-5 c 17.03686,3.082e-5 34.07371,-0.006364 51.11057,-0.0149676 17.11191,-0.008463 34.2238,-0.009477 51.33571,-0.002891 10.17455,0.003705 20.34906,0.001836 30.5236,-0.007942 6.78959,-0.005975 13.57915,-0.004732 20.36873,0.00247 3.87293,0.003902 7.74579,0.004598 11.61871,-0.003457 4.16593,-0.008589 8.33169,-0.001816 12.49763,0.006556 l 3.66793,-0.0150546 3.36068,0.0143964 2.88718,-2.6734e-4 c 3.20688,0.29040984 5.79328,0.99624054 8.75861,2.24981501 2.03724,3.055857 2.25074,3.6501408 2.2599,7.0846685 l 0.0214,2.5351115 -0.007,2.790679 0.0161,2.972487 c 0.0154,3.318867 0.0165,6.637586 0.0177,9.956487 0.008,2.3907 0.0169,4.781397 0.0266,7.172091 0.0215,5.901818 0.0335,11.803614 0.0414,17.705461 0.01,7.066503 0.0315,14.132959 0.053,21.199433 0.0513,17.080414 0.0813,34.16084 0.10702,51.24131 0.009,5.65581 0.0176,11.31162 0.0272,16.96744 0.0505,30.05938 0.0946,60.11876 0.11945,90.17818 0.006,6.96537 0.0118,13.93074 0.0178,20.89611 l 0.002,2.62235 c 0.0243,28.06919 0.0862,56.13812 0.1696,84.20719 0.0855,28.84591 0.13882,57.69168 0.14929,86.53772 10e-4,4.07176 0.003,8.14351 0.005,12.21527 l 10e-4,2.42843 c 0.007,12.91139 0.0477,25.82246 0.10044,38.73373 0.0522,12.97071 0.0678,25.94106 0.0458,38.91186 -0.012,7.71104 0.004,15.42085 0.0597,23.13171 0.0385,5.75067 0.0249,11.50027 -0.009,17.25092 -0.006,2.33179 0.006,4.66369 0.0356,6.9953 0.20971,17.45581 0.20971,17.45581 -3.39631,21.89679 -2.62351,1.61803 -4.91801,2.50367 -7.86388,3.36927 -1.64021,0.84616 -3.26775,1.7178 -4.875,2.625 -22.35688,10.88105 -49.32346,11.52879 -72.86719,3.89844 -12.05933,-4.16442 -23.6069,-9.57365 -34.9375,-15.41016 -24.57098,-12.61383 -53.37335,-18.31642 -80.5,-10.40234 -5.39599,1.74846 -10.6401,3.86636 -15.84375,6.11718 -2.97656,1.17188 -2.97656,1.17188 -5.97656,1.17188 -1.10547,-1.46875 -1.10547,-1.46875 -2.1875,-3.5 -6.75626,-11.31373 -16.55195,-16.48116 -28.8125,-20.5 l -0.41138,-2.25635 c -0.63151,-3.45662 -1.26577,-6.91273 -1.90112,-10.36865 l -0.68823,-3.74463 c -1.3667,-7.38008 -2.80959,-14.71978 -4.5188,-22.02881 -0.89746,-4.8594 -0.89746,-4.8594 -0.48047,-7.60156 1.8789,-1.74609 1.8789,-1.74609 4.5625,-3.4375 21.98879,-15.00912 44.20327,-40.23979 53.4375,-65.5625 2.39038,2.39038 2.92142,4.32626 4.0625,7.5 4.19793,10.17755 10.7049,16.88087 20.76562,21.375 11.92466,4.22944 22.89542,3.81115 34.35938,-1.5 11.79973,-6.37865 18.148,-14.52124 22.23437,-27.13672 4.50353,-17.43595 1.47787,-37.7383 -7.16406,-53.39453 -2.3117,-3.69078 -4.69932,-7.16705 -7.47266,-10.52734 -1.78515,-2.31641 -3.78515,-4.31641 -3.78515,-4.31641 -1.44531,-1.46875 -1.44531,-1.46875 -3.125,-3.5 -12.25888,-14.28121 -27.05929,-25.09214 -43.875,-33.5 -0.59082,-2.16699 -0.59082,-2.16699 -1.07813,-5.04688 l -0.56982,-3.21826 -0.60205,-3.48486 c -2.19891,-12.01421 -5.02942,-23.62061 -8.75,-35.25 l -0.8042,-2.521 c -12.47519,-38.51425 -33.78429,-72.72248 -57.1958,-105.479 -1.13424,-1.60017 -2.26836,-3.20043 -3.40235,-4.80078 -7.05915,-9.91227 -14.43095,-19.55813 -21.96045,-29.1167 -1.53337,-1.95044 -3.05778,-3.90745 -4.57861,-5.86768 -4.89552,-6.29731 -9.89843,-12.47763 -15.08374,-18.53906 -2.80665,-3.28116 -5.53328,-6.61122 -8.22485,-9.98828 -6.60658,-8.1321 -13.78606,-16.12867 -21.45362,-23.275388 -2.90618,-2.891382 -0.94229,-1.034819 -2.90015,-2.860786 l -1.39604,-1.551323 c -2.493,-2.249782 -4.02041,-4.017139 -6.23653,-6.621896 -1.69288,-1.566776 -0.34413,-0.348551 -2.97199,-2.901673 -2.74429,-1.881737 -4.15169,-3.720535 -6.35398,-6.038931 -5.16597,-5.264003 -10.65142,-9.875106 -16.4375,-14.4375 -1.16444,-0.931819 -2.32849,-1.864133 -3.49219,-2.796875 -14.05704,-12.322976 -14.05704,-12.322976 -31.48047,-15.882813 -2.96769,0.994948 -4.7391,2.55099 -7.02734,4.679688 -1.3431,2.799685 -1.3431,2.799685 -2.14063,5.996094 l -1.04126,3.601318 -1.06811,3.840088 c -0.76971,2.640134 -1.55879,5.274138 -2.35547,7.90625 l -0.60045,1.986435 c -9.31154,30.327781 -27.87873,54.807382 -48.18861,78.603402 -3.08839,3.62246 -6.0972,7.3077 -9.10157,11 -1.92166,2.35337 -3.8515,4.69884 -5.78906,7.03907 -6.86809,8.29867 -13.64696,16.65091 -20.25488,25.1582 -1.58781,2.03282 -3.19114,4.05281 -4.7959,6.07226 -10.45878,13.21783 -20.18086,26.92758 -29.07812,41.25 -1.09358,1.75619 -2.21529,3.49506 -3.35938,5.21875 -15.36797,23.71059 -25.67195,50.82555 -32.03516,78.23829 l -0.63916,2.66577 c -0.47801,2.09824 -0.86189,4.21751 -1.22802,6.33813 -1.92193,4.47883 -4.76943,5.46633 -9.07422,7.39844 -11.04482,5.38938 -20.83103,12.04873 -29.79688,20.50781 -1.45312,1.17969 0.11475,-0.0746 -1.88525,1.86955 l -1.56787,1.31014 c -1.36328,1.30469 -1.36328,1.30469 -3.3125,2.875 -18.51218,15.86291 -31.11092,36.3952 -33.5,61 -0.69413,14.03682 1.98685,26.00812 10.47656,37.34766 8.89659,9.59229 21.61273,14.39908 34.46094,15.08984 10.74728,-0.19836 20.07204,-5.17982 27.875,-12.3125 2.40982,-2.82565 4.2585,-5.72621 6,-9 l 1.14062,-2.04297 c 3.4623,-6.88584 4.55068,-14.43199 5.85938,-21.95703 3.18431,1.59216 3.77454,4.90468 5.0625,8.0625 12.04552,28.39438 32.19004,53.77252 57.9375,70.9375 l -0.30371,1.68286 c -0.30668,1.70844 -0.61094,3.41731 -0.91358,5.12647 -0.35934,2.02578 -0.72371,4.05067 -1.09277,6.0747 -1.03756,5.82865 -1.88755,11.62437 -2.49463,17.51441 l -0.41895,3.68042 c -0.26402,2.37383 -0.49102,4.75213 -0.67773,7.1333 -0.37866,3.22263 -0.76747,5.82623 -2.09863,8.78784 -3.1276,2.23186 -6.30255,3.08859 -10,4 -10.62623,4.70871 -17.95014,10.46076 -23.00781,21.125 -2.43105,6.41984 -2.68723,13.07128 -2.99219,19.875 -17.23773,-2.00857 -32.37368,-7.6894 -48,-15 -34.24322,-15.9788 -66.32719,-23.547 -103.178711,-11.04688 -8.256853,3.06381 -16.178206,6.94897 -24.112305,10.7544 -15.528748,7.4089 -31.105516,14.54754 -48.5839844,14.35498 l -2.375,-0.0137 c -1.9167001,-0.0117 -3.8333606,-0.0296 -5.7499996,-0.0488 -0.05134,-56.669 -0.0991,-113.338 -0.12703,-170.00702 l -0.0013,-2.54013 c -0.009,-18.21568 -0.01729,-36.43136 -0.02491,-54.64704 -0.0037,-8.9325 -0.0076,-17.86501 -0.0116,-26.79751 l -0.0012,-2.69366 c -0.01279,-28.83063 -0.03533,-57.66124 -0.06291,-86.49185 -0.02828,-29.61837 -0.04676,-59.23673 -0.05285,-88.85511 -8.65e-4,-4.17996 -0.0018,-8.35992 -0.0029,-12.53988 l -6.13e-4,-2.49304 c -0.0036,-13.26237 -0.01748,-26.5247 -0.03525,-39.78705 -0.01763,-13.321582 -0.02442,-26.643134 -0.02001,-39.964727 0.0023,-7.922087 -0.0039,-15.844065 -0.02189,-23.766133 -0.01252,-5.904326 -0.0095,-11.808576 -3.04e-4,-17.712911 0.0013,-2.397097 -0.0026,-4.794203 -0.01195,-7.191283 -0.01193,-3.242894 -0.0056,-6.485242 0.0055,-9.728126 l -0.02388,-2.860841 c 0.04877,-6.2343893 0.04877,-6.2343893 1.666097,-9.4727192 3.2867308,-2.76145474 6.9736176,-2.57619752 11.122092,-2.57746692 z"
     fill="#82a7c7"
     id="path3"
     sodipodi:nodetypes="ccccccscsssssssssssssccccscccccccccccccssssssssscccccccccccccccccccccccccccccccccccccccccccccccccccccccccccccccccccccccccccccccccccccccccccccccccsssssssssccccccccc" />
  <path
     d="m 377.38046,65.068603 c 16.25122,11.790105 30.73917,25.731602 45,39.812497 l 1.83569,1.79615 c 1.42791,1.42498 2.80204,2.9035 4.16431,4.39135 l 1.08011,1.08191 0.91989,0.91809 c 1.41016,1.39844 1.41016,1.39844 3.0625,3.375 2.71674,3.20047 5.48085,6.33807 8.3125,9.4375 4.73115,5.24888 9.18377,10.69313 13.625,16.1875 1.01083,1.23121 2.0226,2.46163 3.03516,3.69141 7.03642,8.56539 13.82086,17.27911 20.4038,26.19726 1.61389,2.18281 3.23729,4.35831 4.86182,6.53321 14.57988,19.57381 28.38623,39.49169 40.69922,60.57812 l 1.51123,2.56445 c 15.94331,27.22734 26.92719,57.3918 32.48877,88.43555 l 0.39795,2.18506 c 7.06933,40.89899 -1.39736,85.10353 -25.39404,119.1626 -5.5437,7.6176 -11.47609,14.85394 -18.00391,21.65234 l -2.54297,2.69922 c -30.5991,31.65881 -74.46003,46.40876 -117.89453,47.33203 -48.20435,0.14033 -95.3542,-14.16635 -130.5625,-48.03125 l -1.42432,-1.34619 C 251.16331,462.54318 241.89902,450.52303 234.38046,436.0686 l -1.02344,-1.93604 c -20.50965,-39.27483 -20.6035,-87.95201 -8.15674,-129.82177 12.02088,-37.72747 34.08939,-70.29195 58.18018,-101.24219 l 1.49756,-1.92725 c 8.43663,-10.84304 17.09372,-21.476 26.06299,-31.88354 3.76276,-4.37416 7.4189,-8.82512 11.04882,-13.3103 1.75241,-2.11033 3.5234,-4.17663 5.34375,-6.22656 22.56437,-25.43117 39.40936,-52.378321 50.04688,-84.652347 z"
     fill="#82a7c7"
     id="path4"
     sodipodi:nodetypes="ccccccccccccccccccccccccccccccc" />
  <path
     d="m 129.13046,671.7561 c 0.74282,0.14849 1.48564,0.29697 2.25098,0.44996 11.00727,2.46063 21.04517,7.79736 31.13012,12.68823 13.65418,6.61333 27.00576,12.77152 41.8689,16.17431 0.72687,0.17693 1.45374,0.35385 2.20264,0.53614 16.72627,3.94961 36.06206,4.30041 52.79736,0.46386 1.11246,-0.24492 2.22492,-0.48984 3.37109,-0.74218 16.96403,-4.12688 32.59707,-11.0748 48.07642,-19.02295 21.33933,-10.84826 45.25064,-15.41758 68.66577,-8.55908 1.2984,0.43302 2.5939,0.8748 3.88672,1.32421 0.71462,0.2467 1.42925,0.49339 2.16553,0.74756 8.93717,3.15601 17.44248,6.93845 25.86792,11.26441 33.13287,16.90854 68.06525,22.45377 104.03198,11.01294 11.09744,-3.72177 21.66731,-8.10964 31.90771,-13.77637 11.37653,-6.27909 23.18816,-10.99771 36.02686,-13.24854 1.08475,-0.19529 1.08475,-0.19529 2.19141,-0.39453 27.23041,-4.12582 53.51147,9.39146 76.98046,21.53907 4.06557,2.05153 8.25086,3.51879 12.57813,4.91796 0.78423,0.25677 1.56847,0.51353 2.37646,0.77808 27.29951,8.81343 54.36956,8.51414 81.18189,-1.82153 4.2446,-1.62541 8.19569,-2.44008 12.69165,-3.01905 0.0695,8.27545 0.12283,16.55078 0.15544,24.82645 0.0157,3.84279 0.0369,7.68537 0.0709,11.52805 0.0326,3.7088 0.0505,7.41741 0.0583,11.12635 0.006,1.41459 0.0164,2.82918 0.0326,4.2437 0.0218,1.98201 0.023,3.96422 0.0234,5.94635 0.007,1.12807 0.0133,2.25614 0.0202,3.4184 -0.41548,3.35218 -1.02586,4.50981 -3.36076,6.9107 -2.45933,0.60496 -2.45933,0.60496 -5.37215,0.74214 -1.07569,0.0553 -2.15138,0.11054 -3.25967,0.16748 -5.47352,0.14688 -10.93816,0.22731 -16.4138,0.21623 -1.2646,0.002 -2.5292,0.003 -3.83213,0.004 -3.49087,0.004 -6.98172,0.002 -10.47259,-0.002 -3.80528,-0.002 -7.61056,7.2e-4 -11.41585,0.003 -6.66311,0.004 -13.32622,0.004 -19.98933,9.5e-4 -9.90871,-0.004 -19.81741,-0.002 -29.72611,0.001 -17.69987,0.005 -35.39974,0.005 -53.09961,0.002 -15.49327,-0.002 -30.98654,-0.003 -46.47981,-0.002 -1.542,1.1e-4 -1.542,1.1e-4 -3.11516,2.3e-4 -4.17315,3.1e-4 -8.3463,6.3e-4 -12.51946,9.6e-4 -39.14823,0.003 -78.29646,2.9e-4 -117.4447,-0.005 -34.76327,-0.005 -69.52654,-0.004 -104.28981,4.6e-4 -39.06792,0.005 -78.13583,0.008 -117.20375,0.004 -4.16738,-3.2e-4 -8.33475,-6.3e-4 -12.50213,-9.4e-4 -1.02609,-8e-5 -2.05218,-1.6e-4 -3.10937,-2.4e-4 -15.47748,-10e-4 -30.95496,1.9e-4 -46.43245,0.003 -17.60786,0.003 -35.21572,0.002 -52.82358,-0.003 -9.84767,-0.003 -19.695336,-0.003 -29.54301,6.4e-4 -6.586733,0.002 -13.173459,8.4e-4 -19.760191,-0.004 -3.747071,-0.002 -7.494125,-0.003 -11.241195,4.1e-4 -25.508802,0.0226 -25.508802,0.0226 -36.724702,-0.5135 -1.08934,-0.0455 -1.08934,-0.0455 -2.20069,-0.092 -4.78525,-0.28154 -4.78525,-0.28154 -7.02875,-2.52504 -1.12688,-6.27676 -1.13169,-12.48197 -1.09766,-18.84375 10e-4,-1.0097 0.003,-2.0194 0.004,-3.0597 0.006,-3.19888 0.0181,-6.39769 0.0309,-9.59655 0.005,-2.17969 0.01,-4.35938 0.0137,-6.53907 0.011,-5.32033 0.0277,-10.64063 0.0488,-15.96093 0.93634,-0.12307 0.93634,-0.12307 1.89159,-0.24861 2.86859,-0.37884 5.73654,-0.76235 8.6045,-1.14592 0.98175,-0.12895 1.96349,-0.2579 2.97498,-0.39075 20.56202,-2.7636 39.464648,-9.85176 57.837524,-19.33582 8.421385,-4.33271 17.110322,-7.82953 26.129086,-10.69126 0.975498,-0.3107 0.975498,-0.3107 1.970698,-0.62768 12.59219,-3.83881 25.57507,-3.49209 38.3418,-0.87232 z"
     fill="#4f7ba3"
     id="path5" />
  <path
     d="m 409.13046,606.5061 c 34.43907,17.43552 70.64255,22.90879 107.75,11.12891 12.54091,-4.22199 24.49272,-10.04396 36.375,-15.81641 23.33208,-11.32889 46.19646,-14.48126 71.15088,-6.06689 9.51188,3.43155 18.52154,8.01973 27.59912,12.44189 32.56585,15.82477 66.98464,20.95868 101.9375,9.9375 5.62868,-2.0154 11.05105,-4.4753 16.4375,-7.0625 1.65116,1.65116 1.19477,3.60768 1.25635,5.88355 0.029,1.04166 0.058,2.08332 0.0878,3.15654 0.0972,4.78309 0.17156,9.56603 0.22567,14.34981 0.0367,2.52311 0.0912,5.04603 0.16407,7.56836 0.10338,3.63311 0.14786,7.26286 0.18017,10.89721 0.0433,1.12521 0.0866,2.25041 0.13126,3.40972 -0.0185,7.66482 -0.0185,7.66482 -2.98705,10.75813 -2.29703,1.55939 -4.5418,2.81039 -7.05827,3.97668 -1.16402,0.58008 -2.32805,1.16016 -3.52734,1.75782 -27.97223,11.21452 -56.29407,12.1706 -84.34766,0.49218 -6.47332,-2.8714 -12.78662,-6.03669 -19.10547,-9.23046 -30.01111,-15.13269 -60.91197,-20.93906 -93.77344,-10.89844 -11.46058,3.86538 -22.37972,9.61516 -33.24609,14.8789 -27.58196,13.28179 -54.69412,18.15777 -84.4375,8.875 -10.65787,-3.79174 -20.78348,-8.90114 -30.83594,-14.05859 -23.42571,-12.00536 -47.27043,-17.22541 -73.53906,-13.62891 -1.17248,0.15119 -1.17248,0.15119 -2.36865,0.30542 -13.8414,2.09015 -26.34945,7.88918 -38.81885,13.94458 -27.73415,13.39457 -27.73415,13.39457 -40,15.875 -0.74564,0.15824 -1.49128,0.31647 -2.25952,0.4795 -7.22278,1.45115 -14.37527,1.99478 -21.74048,2.208 -1.15436,0.0773 -1.15436,0.0773 -2.33203,0.15625 -22.69272,1.04135 -44.18433,-10.05181 -63.88281,-19.8164 -9.05191,-4.47081 -17.70124,-8.67592 -27.53516,-11.08985 -0.79793,-0.20753 -1.59586,-0.41507 -2.41797,-0.6289 -36.74283,-9.35163 -68.058118,4.2427 -100.417968,20.14062 -7.61883,3.66184 -15.21184,6.20241 -23.41406,8.23828 -0.87398,0.22688 -1.74797,0.45375 -2.64844,0.6875 -7.09932,1.65422 -12.65351,1.3125 -20.35156,1.3125 0,-18.81 0,-37.62 0,-57 11.385,-0.99 11.385,-0.99 23,-2 15.24295,-3.90368 29.95714,-9.22825 43.9375,-16.5 23.4632,-12.14468 51.072318,-19.85469 77.160158,-11.88671 6.69758,2.27666 13.08822,5.28351 19.49121,8.2705 40.50066,18.7494 83.13095,29.78245 126.70019,14.28418 8.41008,-3.15694 16.44219,-6.94536 24.40601,-11.08374 5.95053,-3.03525 12.08872,-5.52226 18.30493,-7.95923 1.45176,-0.57222 1.45176,-0.57222 2.93286,-1.156 28.8754,-11.13326 55.45394,-3.08441 81.81714,10.4685 z"
     fill="#517da5"
     id="path6" />
  <path
     d="m 487.38046,523.0686 c 0.81864,4.62227 1.63647,9.24467 2.45361,13.86719 0.27713,1.5671 0.55447,3.13416 0.83203,4.70117 0.26958,1.52209 0.53865,3.04426 0.80719,4.56653 0.26591,1.50198 0.53426,3.00353 0.80506,4.50464 0.59447,3.32192 1.13603,6.62343 1.56793,9.9718 0.60481,4.62035 1.01572,7.64135 3.70215,11.51367 3.36636,2.22877 6.2002,3.03699 10.14453,3.875 7.08829,1.65933 12.64238,3.76457 17.6875,9.125 1,1.875 1,1.875 1,4.875 -20.37569,10.14468 -42.88161,15.01533 -65.47266,10.48047 -0.729,-0.14167 -1.45801,-0.28335 -2.2091,-0.42932 -1.77372,-0.34543 -3.54613,-0.69758 -5.31824,-1.05115 -1.67541,-6.7945 -3.3474,-13.58983 -5.01709,-20.38574 -0.56759,-2.30846 -1.13593,-4.61673 -1.70508,-6.9248 -0.82121,-3.33088 -1.63962,-6.66245 -2.45752,-9.99414 -0.25216,-1.02021 -0.50432,-2.04041 -0.76413,-3.09153 -1.51222,-6.17403 -2.86678,-12.3594 -4.05618,-18.60379 0.69335,-0.20044 1.38671,-0.40089 2.10107,-0.60742 12.82323,-3.73949 33.09905,-16.39258 45.89893,-16.39258 z"
     fill="#81a7c7"
     id="path7" />
  <path
     d="m 194.38046,355.0686 0.0601,2.05689 c 0.50681,17.49331 0.50681,17.49331 2.5376,34.85718 1.17151,8.98539 1.17151,8.98539 -0.83985,11.86328 -4.53559,3.22265 -4.02263,3.12006 -6.34744,3.73562 l -1.28928,1.25266 c -0.67852,1.35231 -1.37018,2.69827 -2.08593,4.03125 -2.46953,4.95889 -3.55559,9.7591 -4.41016,15.20312 -1.25894,7.61537 -3.38985,13.21121 -9.21875,18.42579 -4.72146,3.24043 -9.8685,3.51555 -15.40625,2.57421 -6.36981,-2.06785 -11.13531,-6.13808 -14.74609,-11.73437 -3.89495,-10.14385 -2.25696,-24.3876 1.74609,-34.26563 4.69335,-9.41414 11.98853,-17.25529 19,-25 l 2.09375,-2.3164 c 5.88304,-6.16972 20.00016,-20.6836 28.90625,-20.6836 z"
     fill="#82a7c7"
     id="path8"
     sodipodi:nodetypes="ccccccccccccccc" />
  <path
     d="m 287.38046,520.0686 c 1.01578,0.5195 2.03156,1.03899 3.07812,1.57422 14.9714,7.61096 29.7129,13.02731 45.92188,17.42578 -0.4158,2.69984 -0.85166,5.39131 -1.32422,8.08204 -0.36083,2.09195 -0.71446,4.1856 -1.01807,6.28662 -0.36952,2.55106 -0.79192,5.08955 -1.22021,7.63134 -0.16097,1.23714 -0.16097,1.23714 -0.3252,2.49927 -1.03205,5.71922 -1.03205,5.71922 -3.83911,7.75 -2.38625,1.06005 -4.80552,1.89771 -7.27319,2.75073 -1.96385,0.879 -3.91787,1.78016 -5.86328,2.69922 -4.46507,2.06901 -8.93236,4.13302 -13.40235,6.19141 -4.10175,1.88973 -8.19572,3.79421 -12.28125,5.71875 -14.44865,6.74906 -28.30966,12.08179 -44.45312,12.39062 -0.30743,-5.84116 0.0379,-9.767 3,-15 5.15934,-5.40502 10.89136,-7.1576 18.10547,-8.63671 1.05832,-0.22301 2.11664,-0.44602 3.20703,-0.67579 0.98613,-0.18175 1.97226,-0.36351 2.98828,-0.55078 3.59254,-1.51292 5.07833,-3.71215 6.69922,-7.13672 0.92181,-3.39163 1.4085,-6.8104 1.88672,-10.28906 0.14734,-0.98084 0.29468,-1.96169 0.44649,-2.97226 0.46564,-3.11932 0.91052,-6.24117 1.35429,-9.36368 0.45903,-3.12883 0.92225,-6.25702 1.38643,-9.3851 0.28669,-1.94263 0.56954,-3.88583 0.84811,-5.82965 0.12716,-0.88126 0.25432,-1.76253 0.38533,-2.6705 0.11007,-0.77244 0.22014,-1.54488 0.33354,-2.34073 0.3487,-2.08686 0.81613,-4.10494 1.35909,-6.14902 z"
     fill="#81a7c7"
     id="path9" />
  <path
     d="m 354.38046,340.0686 c 3.48793,1.9295 6.31675,4.27903 9.25,6.9375 10.03792,8.73631 23.67369,12.24993 36.75,12.0625 14.53395,-1.26188 27.69161,-6.45893 38.27344,-16.64453 3.1956,-2.50876 5.70537,-2.48518 9.72656,-2.35547 3.92303,1.25834 5.52954,2.34744 7.9375,5.6875 1.83763,5.7291 0.95109,9.56705 -1.6875,14.75 -10.70187,13.43101 -30.43181,20.10076 -46.8125,22.25 -1.47764,0.12402 -2.9571,0.22769 -4.4375,0.3125 -0.80438,0.0529 -1.60875,0.10571 -2.4375,0.16016 -20.03059,0.68557 -39.20404,-6.48443 -54.5625,-19.09766 -3.77664,-3.53211 -6.55387,-6.76841 -7,-12.0625 0.41108,-3.36534 1.25857,-6.08577 3,-9 3.89767,-2.85829 7.22083,-3.69696 12,-3 z"
     fill="#1c4569"
     id="path10" />
  <path
     d="m 583.38046,362.0686 c 4.92168,2.6592 9.15468,5.52662 13.375,9.1875 0.56308,0.48558 1.12616,0.97115 1.7063,1.47144 11.04634,9.61257 23.85248,21.36718 26.9187,36.34106 0.1766,0.71415 0.3532,1.42829 0.53516,2.16407 0.6641,4.05158 0.76964,8.04848 0.83984,12.14843 0.0561,1.22494 0.0561,1.22494 0.11328,2.47461 0.10549,7.35484 -2.42475,11.91371 -7.36719,17.23633 -0.55558,0.44602 -1.11117,0.89203 -1.68359,1.35156 -0.83725,0.69223 -0.83725,0.69223 -1.69141,1.39844 -4.84023,3.40008 -8.91687,4.02414 -14.74609,3.22656 -4.82782,-1.74442 -8.25624,-4.68837 -11,-9 -2.35789,-5.09304 -3.41734,-9.98236 -4.4375,-15.5 -1.26232,-6.6637 -2.62715,-12.56465 -7.5625,-17.5 0.21707,-2.72849 0.54684,-5.3091 1,-8 0.2397,-1.51951 0.47928,-3.03904 0.71875,-4.55859 0.12721,-0.79052 0.25443,-1.58103 0.3855,-2.39551 1.5959,-10.01451 2.51521,-19.91562 2.89575,-30.0459 z"
     fill="#82a7c7"
     id="path11" />
  <path
     d="m 358.38046,543.0686 c 1.10916,0.1072 1.10916,0.1072 2.24072,0.21656 11.71059,0.99249 23.39073,0.89508 35.13428,0.84594 2.10417,-0.005 4.20833,-0.01 6.3125,-0.0137 5.10419,-0.0109 10.20833,-0.0281 15.3125,-0.0488 6.8484,26.12034 6.8484,26.12034 9.5,37 0.25765,1.01985 0.25765,1.01985 0.52051,2.06031 0.76412,3.20009 1.0448,4.74375 -0.0205,7.93969 -0.95777,-0.48468 -1.91555,-0.96937 -2.90234,-1.46875 -3.59134,-1.81186 -7.19211,-3.60419 -10.79688,-5.38916 -1.48638,-0.73782 -2.9709,-1.47943 -4.45312,-2.22558 -16.74605,-8.40811 -32.10805,-12.54015 -50.84913,-13.69873 -1.99853,-0.21778 -1.99853,-0.21778 -4.99853,-1.21778 0.64424,-3.25031 1.29067,-6.50019 1.9375,-9.75 0.1824,-0.92039 0.3648,-1.84078 0.55273,-2.78906 0.17725,-0.88945 0.3545,-1.7789 0.53711,-2.69531 0.16234,-0.81694 0.32469,-1.63389 0.49195,-2.47559 0.4434,-2.11231 0.94151,-4.20037 1.48071,-6.29004 z"
     fill="#81a6c7"
     id="path12" />
  <path
     d="m 342.44296,258.0686 c 8.54414,5.81729 11.88192,12.99289 13.9375,23 1.18466,9.6722 -1.31393,19.10761 -7,27 -4.44856,4.5732 -7.77551,7.14445 -14.25,7.3125 -5.13589,-0.0737 -7.88245,-0.71477 -11.75,-4.3125 -7.61208,-8.30578 -9.55374,-16.35169 -9.28906,-27.49218 0.62162,-7.54346 2.2731,-14.65586 7.28906,-20.50782 6.44075,-5.40905 12.76873,-7.70817 21.0625,-5 z"
     fill="#1c4569"
     id="path13" />
  <path
     d="m 467.44296,258.0686 c 6.67015,4.54138 10.88732,10.20245 12.9375,18 0.41472,3.13865 0.47734,6.21196 0.4375,9.375 -0.007,0.83491 -0.0137,1.66982 -0.0208,2.53003 -0.23954,9.20565 -2.66516,16.65028 -9.41675,23.09497 -4.87052,3.28812 -9.04864,4.75745 -15,4 -6.12174,-1.82578 -9.62507,-4.71877 -13,-10 -5.00785,-9.287 -5.55312,-20.07325 -3.26953,-30.25781 2.36973,-7.09952 5.42642,-12.35306 12.08203,-16.11719 5.28479,-2.37865 9.67761,-2.44455 15.25,-0.625 z"
     fill="#1c4569"
     id="path14" />
</svg>
